<svg width="235" height="236" viewBox="0 0 235 236" xmlns="http://www.w3.org/2000/svg">
    <g transform="translate(0 .94)" fill="none" fill-rule="evenodd">
        <g fill="currentColor" fill-rule="nonzero">
            <path d="M117.118 90.84c-10.888 0-19.715-8.825-19.715-19.713 0-10.888 8.827-19.714 19.715-19.714 10.887 0 19.714 8.826 19.714 19.714-.014 10.882-8.832 19.7-19.714 19.714zm0-32.855c-7.258 0-13.142 5.884-13.142 13.142 0 7.258 5.884 13.141 13.142 13.141 7.257 0 13.141-5.883 13.141-13.141-.009-7.254-5.887-13.133-13.141-13.142z"/>
            <path d="M117.118 209.118a3.284 3.284 0 0 1-2.93-1.814c-2.038-4.001-49.636-98.346-49.636-129.617 0-16.026 4.853-29.339 14.034-38.532 9.18-9.192 22.505-14.037 38.532-14.037 16.026 0 29.339 4.853 38.531 14.037 9.193 9.185 14.034 22.506 14.034 38.532 0 31.27-47.606 125.616-49.636 129.617a3.284 3.284 0 0 1-2.93 1.814zm0-177.415c-14.262 0-25.961 4.189-33.887 12.11-7.925 7.922-12.11 19.64-12.11 33.887 0 25.418 35.45 99.304 45.997 120.75 10.558-21.446 45.997-95.352 45.997-120.75 0-14.262-4.19-25.965-12.11-33.887-7.922-7.921-19.642-12.11-33.887-12.11z"/>
        </g>
    </g>
</svg>
