<?xml version="1.0" encoding="utf-8"?>
<!-- Generator: Adobe Illustrator 26.5.0, SVG Export Plug-In . SVG Version: 6.00 Build 0)  -->
<svg version="1.1" id="Layer_1" xmlns="http://www.w3.org/2000/svg" xmlns:xlink="http://www.w3.org/1999/xlink" x="0px" y="0px"
	 viewBox="0 0 872 193.25" style="enable-background:new 0 0 872 193.25;" xml:space="preserve">
<style type="text/css">
	.st0{fill:#FFFFFF;}
</style>
<path class="st0" d="M785.96,158.7c0-5.86,0.92-11.05,1.85-16.68L802,73.77h-19.65l4.66-23.16l21.27-1.5l11.27-37.75h26.19
	l-7.31,37.75H872l-4.88,24.65h-34.27l-14.2,69.53c-0.57,3.44-0.79,6.52-0.79,9.82c0,10.36,4.58,15.47,16.17,15.47
	c4.76,0,9.08-1.81,12.96-3.75l6.02,22.1c-6.91,2.86-17.16,6.3-30.09,6.3C796.34,193.25,785.96,178.41,785.96,158.7z M652.98,166.3
	l18.59-15.12c9.2,12.02,20.7,18.82,33.05,18.82c13.01,0,24.22-7.99,24.22-17.92c0-8.99-7.28-13.74-24.93-23.54
	c-18.56-10.23-30.14-21.85-30.14-38.75c0-25.71,23.33-44.11,51.63-44.11c18.4,0,33.1,8.76,44.02,20.24L752.1,82.54
	c-7.09-7.31-15.77-13.26-26.92-13.26c-12.7,0-21.97,7.9-21.97,17.39c0,10.23,12.02,15.21,24.01,21.95
	c20.6,11.2,31.06,22.21,31.06,39.63c0,27.08-23.55,44.99-55.86,44.99C684.49,193.25,663.59,182.54,652.98,166.3z M611.12,45.68
	c32.71,0,44.86,22.85,44.86,51.95c0,12.32-4.18,25.25-6.25,29.93h-85.26c-2.86,29.29,13.39,41.74,34.64,41.74
	c9.79,0,20.62-5.24,28.47-10.93l11.38,19.99c-11.23,8.01-28,14.89-48.15,14.89c-33.6,0-56.44-21.92-56.44-59.62
	C534.38,81.18,574.09,45.68,611.12,45.68z M628.69,107.83c0.79-3.62,1.37-7.72,1.37-12.26c0-13.49-5.78-25.59-22.67-25.59
	c-16.63,0-33.39,13.99-40.13,37.84h61.43V107.83z M523.17,49.11h26.73c2.26,0,3.25,2.83,1.51,4.26
	c-6.99,5.71-13.33,12.55-18.73,20.4h-14.17l-18.64,91.39l-4.57,23.13c-0.1,0.51-0.21,1.02-0.32,1.52h-31.17
	c0.11-0.5,0.22-1,0.32-1.52l4.62-23.13l0.01-0.01l18.34-91.38h-12.48c-0.78-7.98-2.84-14.86-6.14-20.59
	c-0.69-1.19,0.13-2.67,1.49-2.74l22.37-1.33C498.06,20.45,513.9,0,542.23,0c10.56,0,19.8,2.86,27.77,7.35l-10.33,22.1
	c-3.53-2.16-8.81-4.45-14.5-4.45C533.66,25,526.26,33.21,523.17,49.11z M347.81,49.12h25.49l-1.33,19.87h1.15
	c14.72-12.78,30.53-23.3,48.18-23.3c23.47,0,33.34,13.04,33.34,35.66c0,6.52-0.75,12.41-2.29,19.73l-17.75,88.74h-31.2l17.05-84.79
	c1.37-6.48,2.29-10.49,2.29-14.81c0-11.78-5.69-17.78-17.33-17.78c-9.79,0-20.64,6.7-35.37,21.56l-18.85,95.81H320L347.81,49.12z
	 M210.41,49.12h25.48l-1.33,19.87h1.15c14.72-12.78,30.53-23.3,48.18-23.3c23.47,0,33.34,13.04,33.34,35.66
	c0,6.52-0.75,12.41-2.29,19.73l-17.75,88.74H266l17.05-84.79c1.37-6.48,2.29-10.49,2.29-14.81c0-11.78-5.69-17.78-17.33-17.78
	c-9.78,0-20.64,6.7-35.37,21.56l-18.85,95.81h-31.2L210.41,49.12z M155.8,49.12h31.19l-28.18,140.69h-31.19L155.8,49.12z
	 M157.61,20.23C157.61,9.15,166.98,0,178.45,0c9.15,0,17.85,5.89,17.85,16.31c0,11.57-9.37,20.01-20.84,20.01
	C166.31,36.32,157.61,30.78,157.61,20.23z M35.69,11.37h108.9l-5.23,26.41H63.05l-9.02,46h64.68l-5.22,26.41H49.02l-16.08,79.62H0
	L35.69,11.37z"/>
</svg>
