<?xml version="1.0" encoding="utf-8"?>
<!-- Generator: Adobe Illustrator 26.5.0, SVG Export Plug-In . SVG Version: 6.00 Build 0)  -->
<svg version="1.1" id="Layer_1" xmlns="http://www.w3.org/2000/svg" xmlns:xlink="http://www.w3.org/1999/xlink" x="0px" y="0px"
	 viewBox="0 0 576.56 608.22" style="enable-background:new 0 0 576.56 608.22;" xml:space="preserve">
<style type="text/css">
	.st0{fill:#FFFFFF;}
</style>
<path class="st0" d="M576.05,220.39l-41.33,208.72c-1.54,7.77-6.44,14.34-13.45,18.03l-177.8,93.58
	c-11.83,6.23-19.18,18.4-19.18,31.77v22.45c0,7.33-5.96,13.29-13.29,13.29c-7.33,0-13.29-5.96-13.29-13.29V370.83
	c0-20.91,11.5-39.96,30-49.7l171.05-90.02c3.14-1.66,6.74-1.98,10.13-0.93c3.39,1.05,6.17,3.36,7.82,6.5
	c3.41,6.48,0.91,14.53-5.57,17.94l-167.68,88.25c-11.83,6.23-19.18,18.4-19.18,31.77v47.53l112.57-59.25c3.24-1.71,7.08-2,10.54-0.8
	c3.46,1.2,6.3,3.81,7.79,7.16c2.84,6.37,0.11,13.96-6.22,17.3l-105.5,55.53c-11.83,6.23-19.18,18.4-19.18,31.77v46.91l160.52-84.49
	c15.18-7.99,25.8-22.22,29.13-39.05l29.21-147.5c4.18-21.12-3.79-42.44-20.8-55.64L320.86,37.74c-19.18-14.89-45.97-14.89-65.15,0
	L54.21,194.11c-17.01,13.2-24.98,34.52-20.8,55.64l29.21,147.5c3.33,16.83,13.95,31.06,29.13,39.05l160.52,84.49v-46.91
	c0-13.37-7.35-25.54-19.18-31.77l-105.77-55.67c-3.24-1.7-5.65-4.7-6.62-8.23c-0.97-3.53-0.43-7.35,1.49-10.48
	c3.64-5.95,11.45-8,17.78-4.67l112.31,59.11v-47.53c0-13.37-7.35-25.54-19.18-31.77L65.41,254.62c-6.48-3.41-8.98-11.46-5.57-17.94
	c1.65-3.14,4.43-5.45,7.82-6.5c3.39-1.05,6.99-0.72,10.13,0.93l171.05,90.02c18.51,9.74,30,28.78,30,49.7v224.11
	c0,7.33-5.96,13.29-13.29,13.29c-7.33,0-13.29-5.96-13.29-13.29v-22.45c0-13.37-7.35-25.54-19.18-31.77l-177.8-93.58
	c-7.01-3.69-11.91-10.26-13.45-18.03L0.51,220.39c-1.93-9.75,1.75-19.6,9.6-25.7l229.3-177.95c28.77-22.33,68.97-22.33,97.74,0
	l229.3,177.95C574.31,200.79,577.99,210.64,576.05,220.39z M301.57,271.12c0-13.37,7.35-25.54,19.18-31.77l83.55-43.97
	c6.48-3.41,8.98-11.46,5.57-17.94v0c-1.65-3.14-4.43-5.45-7.82-6.5c-3.39-1.05-6.98-0.72-10.13,0.93l-90.35,47.55V108.4
	c0-7.33-5.96-13.29-13.29-13.29c-7.33,0-13.29,5.96-13.29,13.29v111.01l-90.35-47.55c-3.14-1.65-6.74-1.98-10.13-0.93
	c-3.39,1.05-6.17,3.36-7.82,6.5c-3.41,6.48-0.91,14.53,5.57,17.94l83.55,43.97c11.83,6.23,19.18,18.4,19.18,31.77v25.14
	c0,7.33,5.96,13.29,13.29,13.29s13.29-5.96,13.29-13.29V271.12z"/>
</svg>
